Death of a Shadow (2012)

Plot: Stuck in a dark limbo between life and death, a deceased soldier Nathan Rijckx (Matthias Schoenaerts) collects shadows of dying men and women to buy back his own second chance at life. Obsessed by a girl he met the moment before he died, the thought of seeing his beloved again drives the soldier to regain access to the world of the living. But when he discovers that she's already in love with someone else, jealousy clouds his mind and pushes him toward a bitter decision, a decision not without its consequences... 
Academy Award Nominee Best Live Action Short Film 2013.

Cast:
Matthias Schoenaerts ... Nathan Rijckx
Laura Verlinden ... Sarah Winters
Peter van den Eede ... Collector Of Shadows
Benjamin Ramon ... Daniel Hainaut
Amandine Zurbuchen ... Nurse
Brian Piezel ... Boran Kassovic
Denis Duron ... Jan Ternauw
Gregory Rabat ... New Photographer
Emile Boudaille ... Thomas Belcourt
Bruno Clément ... German Soldier
Franck Maréco ... German Soldier
Daniel Rechul ... German Soldier
Laurent Marchetti ... German Soldier
Guillaume Sentier ... German Soldier
Simon Robas ... German Soldier

Details
Original title: Dood van een Schaduw / Mort d'une ombre
Genre: Short | Drama | Fantasy
Runtime: 20 min
Country: Belgium | France
Language: Flemish | French
Subtitles: http://www.subtitleseeker.com/2312702/Death+of+a+Shadow/Subtitles/

Director: Tom Van Avermaet 
Writer: Tom Van Avermaet

IMDb: http://www.imdb.com/title/tt2312702/

Awards & Nominations:

Academy Awards
2013
Nominated
Best Short Film, Live Action

Fargo Film Festival
2013
Won
Best Narrative Short

Gérardmer Film Festival 
2013
Won
Best Short Film

European Film Awards 
2013
Nominated
Best Short Film

L.A. Shorts Fest
2012
Won
Best of the Fest

Leuven International Short Film Festival
2012
Won
Audience Award

Valladolid International Film Festival
2012
Won
Prix UIP Valladolid (European Short Film)

--------------------------------------------------------------------------------

MediaInfo:

General
Format : AVI
Format/Info : Audio Video Interleave
File size : 499 MiB
Duration : 20mn 18s
Overall bit rate : 3 438 Kbps
Writing application : VirtualDubMod 1.5.10.2 (build 2540/release)
Writing library : VirtualDubMod build 2540/release

Video
ID : 0
Format : MPEG-4 Visual
Format profile : Advanced Simple@L5
Format settings, BVOP : 2
Format settings, QPel : No
Format settings, GMC : No warppoints
Format settings, Matrix : Default (H.263)
Muxing mode : Packed bitstream
Codec ID : XVID
Codec ID/Hint : XviD
Duration : 20mn 18s
Bit rate : 3 044 Kbps
Width : 1 280 pixels
Height : 536 pixels
Display aspect ratio : 2.40:1
Frame rate : 24.000 fps
Color space : YUV
Chroma subsampling : 4:2:0
Bit depth : 8 bits
Scan type : Progressive
Compression mode : Lossy
Bits/(Pixel*Frame) : 0.185
Stream size : 442 MiB (89%)
Writing library : XviD 64

Audio
ID : 1
Format : AC-3
Format/Info : Audio Coding 3
Mode extension : CM (complete main)
Format settings, Endianness : Big
Codec ID : 2000
Duration : 20mn 18s
Bit rate mode : Constant
Bit rate : 384 Kbps
Channel(s) : 6 channels
Channel positions : Front: L C R, Side: L R, LFE
Sampling rate : 48.0 KHz
Bit depth : 16 bits
Compression mode : Lossy
Stream size : 55.8 MiB (11%)
Alignment : Split accross interleaves
Interleave, duration : 42 ms (1.00 video frame)
Interleave, preload duration : 500 ms

--------------------------------------------------------------------------------

Screenshots:
http://i.imgur.com/T6Ih6Mwh.jpg